<?xml version="1.0" encoding="iso-8859-1"?>
<!-- Generator: Adobe Illustrator 16.0.0, SVG Export Plug-In . SVG Version: 6.00 Build 0)  -->
<!DOCTYPE svg PUBLIC "-//W3C//DTD SVG 1.1//EN" "http://www.w3.org/Graphics/SVG/1.1/DTD/svg11.dtd">
<svg version="1.1" id="Capa_1" xmlns="http://www.w3.org/2000/svg" xmlns:xlink="http://www.w3.org/1999/xlink" x="0px" y="0px"
	 width="964.615px" height="964.615px" viewBox="0 0 964.615 964.615" style="enable-background:new 0 0 964.615 964.615;"
	 xml:space="preserve">
<g>
	<path d="M806.549,109.438V36.335v-30h-30h-76.732h-30v30v73.103H550.674V36.335v-30h-30h-76.732h-30v30v73.103H294.798V36.335v-30
		h-30h-76.731h-30v30v73.103H31.793H0v31.793v785.256v31.793h31.793h901.029h31.793v-31.793V141.232v-31.793h-31.793
		L806.549,109.438L806.549,109.438z M699.816,109.438V36.335h76.732v73.103v31.793v82.051h-76.732v-82.051V109.438z
		 M443.942,109.438V36.335h76.732v73.103v31.793v82.051h-76.732v-82.051V109.438L443.942,109.438z M188.067,109.438V36.335h76.731
		v73.103v31.793v82.051h-76.731v-82.051V109.438L188.067,109.438z M932.822,926.488H31.793V355.694h901.029V926.488z
		 M932.822,323.901H31.793V141.232h126.274v82.051v30h30h76.731h30v-30v-82.051h119.144v82.051v30h30h76.732h30v-30v-82.051h119.143
		v82.051v30h30h76.732h30v-30v-82.051h126.273V323.901z"/>
	<path d="M271.168,666.372v26.129h-81.672h-31.235l1.26,31.21c1.556,38.55,9.821,70.802,24.565,95.859l0.044,0.075l0.045,0.075
		c14.743,24.725,35.527,43.517,61.772,55.854c24.758,11.639,54.698,17.54,88.986,17.54c57.225,0,101.771-17.008,132.401-50.552
		c29.916-32.767,45.083-71.391,45.083-114.801c0-42.631-13.953-77.18-41.472-102.687l-0.056-0.052l-0.057-0.053
		c-0.171-0.155-0.341-0.312-0.511-0.467c19.203-22.553,28.939-50.165,28.939-82.083c0-21.752-3.992-41.823-11.863-59.655
		c-8.034-18.197-20.152-34.215-36.017-47.608c-30.273-25.549-69.746-38.502-117.325-38.502c-25.099,0-47.011,3.225-65.133,9.586
		c-18.748,6.58-35.273,16.317-49.115,28.942l-0.288,0.264l-0.282,0.271c-17.553,16.867-30.702,35.746-39.082,56.113l-0.359,0.873
		l-0.304,0.894c-7.333,21.587-11.497,44.625-12.376,68.473l-1.147,31.105h31.127h74.072v13.559L271.168,666.372L271.168,666.372z
		 M334.636,795.292c16.334,0,30.577-5.6,42.727-16.809c12.15-11.205,18.23-27.334,18.23-48.383c0-27.867-11.27-46.48-33.807-55.836
		c-12.825-5.262-33.028-7.893-60.617-7.893v-59.636c26.996-0.389,45.833-3.02,56.517-7.894
		c18.449-8.185,27.676-24.748,27.676-49.697c0-16.174-4.714-29.328-14.142-39.465c-9.427-10.131-22.696-15.201-39.798-15.201
		c-19.632,0-34.067,6.24-43.297,18.709c-9.236,12.476-13.658,29.139-13.266,49.99h-77.761c0.776-21.048,4.381-41.022,10.803-59.929
		c6.815-16.562,17.522-31.865,32.125-45.897c10.898-9.938,23.843-17.54,38.835-22.802c14.991-5.262,33.391-7.893,55.196-7.893
		c40.493,0,73.153,10.479,97.974,31.426c24.821,20.952,37.232,49.066,37.232,84.339c0,24.949-7.409,45.997-22.218,63.145
		c-9.355,10.722-19.103,18.029-29.234,21.926c7.601,0,18.514,6.531,32.742,19.586c21.24,19.687,31.865,46.582,31.865,80.685
		c0,35.861-12.415,67.384-37.237,94.571c-24.825,27.187-61.573,40.781-110.247,40.781c-59.965,0-101.632-19.588-124.992-58.761
		c-12.27-20.852-19.084-48.135-20.445-81.854h81.854c0,16.956,2.722,30.987,8.167,42.096
		C289.625,785.06,307.996,795.292,334.636,795.292z M301.35,722.5v-26.129c30.627,0.014,43.831,3.52,48.999,5.627
		c7.388,3.076,15.244,8.065,15.244,28.102c0,18.428-6.448,24.374-8.568,26.328c-6.646,6.131-13.549,8.863-22.389,8.863
		c-18.694,0-24.61-6.692-28.199-13.937C303.061,744.448,301.35,734.74,301.35,722.5z M312.233,531.04
		c1.33-1.796,4.857-6.561,19.188-6.561c12.59,0,16.399,4.096,17.835,5.637c2.619,2.815,6.104,7.854,6.104,19.029
		c0,17.907-6.161,20.642-9.842,22.274l-0.143,0.063l-0.143,0.064c-2.301,1.05-11.802,4.396-40.117,5.104l-0.265-14.041
		C304.589,548.633,307.072,538.011,312.233,531.04z"/>
	<path d="M617.879,590.254V852.59v30h30h85.361h30v-30V428.703v-30h-30h-69.576h-30v29.682c-0.059,0.564-0.396,3.119-2.047,9.007
		c-2.324,7.926-5.449,13.998-9.283,18.054c-6.352,6.722-14.693,11.146-25.516,13.542c-6.055,1.349-19.596,3.229-49.963,4.583
		l-28.664,1.276v28.693v56.713v30h30L617.879,590.254L617.879,590.254z M548.191,503.541c26.242-1.169,44.613-2.923,55.111-5.262
		c16.717-3.7,30.33-11.109,40.826-22.219c7.189-7.601,12.635-17.731,16.33-30.402c2.137-7.602,3.205-13.251,3.205-16.955h69.576
		V852.59h-85.361V560.254h-99.688V503.541L548.191,503.541z"/>
</g>
<g>
</g>
<g>
</g>
<g>
</g>
<g>
</g>
<g>
</g>
<g>
</g>
<g>
</g>
<g>
</g>
<g>
</g>
<g>
</g>
<g>
</g>
<g>
</g>
<g>
</g>
<g>
</g>
<g>
</g>
</svg>
