<?xml version="1.0" encoding="iso-8859-1"?>
<!-- Generator: Adobe Illustrator 18.1.1, SVG Export Plug-In . SVG Version: 6.00 Build 0)  -->
<svg version="1.1" id="Capa_1" xmlns="http://www.w3.org/2000/svg" xmlns:xlink="http://www.w3.org/1999/xlink" x="0px" y="0px"
	 viewBox="0 0 270 270" style="enable-background:new 0 0 270 270;" xml:space="preserve">
<path color-rendering="auto" image-rendering="auto" shape-rendering="auto" color-interpolation="sRGB" d="M135,0
	C60.501,0,0,60.501,0,135c0,74.499,60.501,135,135,135s135-60.501,135-135C270,60.501,209.499,0,135,0L135,0z M138.359,10.047
	c33.812,0.889,64.25,15.174,86.225,37.744c-26.232,20.93-42.072,50.257-43.775,81.504c-3.598,0.05-7.195,0.078-10.793,0.094
	c-0.465-30.571-4.732-58.744-11.75-80.971C153.1,32.057,146.64,18.635,138.359,10.047L138.359,10.047z M122.129,10.654l-0.041,0.113
	c9.039,3.253,19.471,17.946,26.643,40.66c6.624,20.979,10.811,48.283,11.283,77.957c-6.973-0.032-13.926-0.126-20.842-0.287
	c-3.126-39.947-37.831-73.972-87.076-87.678C71.139,24.54,95.375,13.385,122.129,10.654z M43.707,49.582
	c48.874,11.658,81.965,43.463,85.398,79.238c-43.307-1.411-84.534-5.364-117.838-11.641C14.966,91.212,26.628,67.831,43.707,49.582
	L43.707,49.582z M231.283,55.236c15.987,19.282,26.286,43.454,28.338,69.959c-22.141,2.072-45.363,3.366-68.795,3.908
	C192.575,100.945,206.999,74.403,231.283,55.236z M10.252,127.166c33.999,6.35,75.531,10.308,119.035,11.703
	c-2.21,36.706-35.667,69.631-85.592,81.535C22.795,198.066,10,168.044,10,135C10,132.368,10.092,129.758,10.252,127.166
	L10.252,127.166z M259.998,135.205c-0.048,30.207-10.78,57.883-28.625,79.455c-24.788-19.528-39.325-46.739-40.623-75.527
	C214.302,138.585,237.661,137.283,259.998,135.205L259.998,135.205z M139.293,139.141c6.88,0.158,13.798,0.25,20.732,0.279
	c-0.395,31.492-4.962,60.258-12.148,81.777c-7.185,21.517-17.301,35.081-26.035,38.117c-26.647-2.781-50.785-13.919-69.762-30.746
	C102.051,214.666,137.054,179.843,139.293,139.141L139.293,139.141z M180.75,139.324c1.357,31.745,17.308,61.589,43.93,82.789
	c-21.978,22.622-52.449,36.945-86.303,37.84c7.767-8.097,13.955-20.522,18.986-35.588c7.635-22.865,12.269-52.52,12.662-84.943
	C173.6,139.405,177.176,139.375,180.75,139.324L180.75,139.324z"/>
<g>
</g>
<g>
</g>
<g>
</g>
<g>
</g>
<g>
</g>
<g>
</g>
<g>
</g>
<g>
</g>
<g>
</g>
<g>
</g>
<g>
</g>
<g>
</g>
<g>
</g>
<g>
</g>
<g>
</g>
</svg>
