<?xml version="1.0" encoding="iso-8859-1"?>
<!-- Generator: Adobe Illustrator 18.0.0, SVG Export Plug-In . SVG Version: 6.00 Build 0)  -->
<!DOCTYPE svg PUBLIC "-//W3C//DTD SVG 1.1//EN" "http://www.w3.org/Graphics/SVG/1.1/DTD/svg11.dtd">
<svg version="1.1" id="Capa_1" xmlns="http://www.w3.org/2000/svg" xmlns:xlink="http://www.w3.org/1999/xlink" x="0px" y="0px"
	 viewBox="0 0 182.986 182.986" style="enable-background:new 0 0 182.986 182.986;" xml:space="preserve">
<g>
	<path d="M146.82,80.628c-20.425-16.019-28.107-42.11-51.556-55.421c-14.222-8.074-31.011-11.078-46.489-6.257
		C46.071,4.411,32.605-6.589,19.303,4.577c-5.243,4.4-6.341,9.944-3.744,16.285c2.079,5.078,6.157,10.225,11.592,11.429
		C19.779,39.949,15.053,49.87,14.914,60.97c-0.254,20.224,12.732,38.008,24.263,54.485c0.032,0.189,0.141,0.335,0.311,0.444
		c1.977,2.828,3.913,5.623,5.721,8.38c1.514,10.587,0.416,20.414,0.378,31.161c-0.018,5.114-0.234,11.849,2.903,16.244
		c6.064,8.496,20.352,5.637,28.805,1.912c1.032,6.124,7.653,9.749,13.87,9.36c6.999-0.438,12.989-5.829,13.076-13.042
		c0.018-1.457-0.325-2.779-0.811-4.022c0.102-0.016,0.193,0.024,0.301-0.037C125.502,153.591,207.487,94.655,146.82,80.628z
		 M18.903,21.173c-3.382-6.776-1.157-12.863,5.136-16.694c11.936-7.265,20.277,4.984,22.458,15.26
		c-1.436,0.524-2.859,1.117-4.266,1.779c0.06-3.968-1.788-8.488-5.129-10.78c-3.025-2.075-7.497-2.436-10.392,0.076
		c-2.729,2.368-3.208,6.56-1.759,9.745c1.674,3.681,5.221,5.336,8.981,5.888c-1.636,1.186-3.218,2.437-4.693,3.796
		C24.443,29.362,21.043,25.46,18.903,21.173z M37.344,24.239c-0.509-0.024-1.018-0.049-1.527-0.074
		c-0.56-0.027-0.76,0.433-0.683,0.858c-2.653-0.58-5.49-1.872-7.102-4.116c-1.802-2.508-2.094-6.711,0.835-8.592
		c2.543-1.633,6.012-0.532,7.974,1.47c2.182,2.227,2.574,5.21,3.152,8.108c0.054,0.269,0.211,0.428,0.38,0.562
		C39.331,23.003,38.345,23.633,37.344,24.239z M91.774,158.874c-0.386,0.042-0.767,0.031-1.155,0.114
		c-0.721,0.154-0.782,1.058-0.355,1.489c-1.239-0.063-2.444,0.085-3.617,0.334c-1.16-8.171-1.676-16.546-3.073-24.682
		c1.674-1.196,3.352-2.346,5.019-3.471c-0.153,0.164-0.256,0.377-0.238,0.649C88.906,141.777,90.197,150.494,91.774,158.874z
		 M88.71,132.576c5.695-3.841,11.215-7.27,15.67-10.193c15.062-9.884,35.007-24.661,53.708-22.555
		c2.093,12.707-18.272,29.217-26.889,36.597c-10.556,9.041-22.264,16.253-34.334,23.049c-1.081-0.389-2.215-0.661-3.399-0.708
		c-0.576-8.562-1.516-17.331-3.12-25.731C90.194,132.246,89.238,132.166,88.71,132.576z M84.869,161.309
		c-1.99,0.723-3.778,1.876-5.124,3.494c-4.897,1.52-20.306,6.449-22.189-0.164c2.15-6.217,6.751-12.064,12.417-17.463
		c0.385-0.283,0.77-0.56,1.153-0.853c0.159-0.122,0.212-0.29,0.222-0.458c3.171-2.893,6.64-5.631,10.177-8.233
		C81.77,145.525,83.339,153.672,84.869,161.309z M91.164,180.279c-5.179,0.366-11.499-2.6-11.417-8.511
		c0.092-6.558,6.612-9.513,12.259-9.869c0.442-0.028,0.67-0.483,0.566-0.832c0.256,0.073,0.536,0.036,0.746-0.127
		c4.457,0.771,8.237,3.973,8.196,8.976C101.466,175.591,96.656,179.891,91.164,180.279z M102.857,164.364
		c-0.026,0.016-0.02,0.045-0.043,0.062c-0.951-1.654-2.314-3.026-3.94-4.003c15.564-6.908,29.602-16.963,41.781-28.843
		c7.499-7.315,24.011-20.893,19.127-32.701c-0.092-0.222-0.249-0.348-0.413-0.449c-0.027-0.517-0.296-1.002-0.889-1.1
		c-21.292-3.515-44.617,14.872-61.075,26.181c-9.333,6.414-23.934,14.687-33.017,24.967c-3.681,2.834-6.554,6.98-8.248,11.215
		c-0.172,0.076-0.334,0.19-0.463,0.382c-2.739,4.07,0.277,9.049,4.535,10.531c5.543,1.929,12.571,0.005,17.816-2.997
		c-0.375,0.915-0.672,1.886-0.807,2.957c-0.062,0.49,0.006,0.93,0.008,1.396c-5.193,1.124-12.374,3.551-17.174,2.046
		c-5.937-1.862-10.294-6.839-11.487-12.518c0.819-0.003,1.637,0.01,2.458-0.02c0.514-0.018,0.515-0.781,0-0.799
		c-0.86-0.031-1.719-0.018-2.577-0.021c-0.07-0.455-0.167-0.906-0.195-1.367c-0.093-1.537-0.097-3.081-0.068-4.623
		c1.607,0.069,3.215,0.152,4.822,0.162c0.421,0.002,0.416-0.628,0-0.651c-1.6-0.089-3.205-0.105-4.809-0.134
		c0.037-1.464,0.099-2.928,0.16-4.387c0.023-0.551,0.054-1.103,0.081-1.654c2.835-0.315,5.659-0.383,8.531-0.292
		c0.511,0.016,0.65-0.838,0.123-0.913c-2.877-0.41-5.747-0.294-8.601,0.111c0.127-2.452,0.261-4.902,0.332-7.345
		c2.97-0.472,5.811-0.302,8.806-0.318c0.652-0.003,0.832-1.028,0.158-1.169c-2.907-0.608-6.035-0.225-8.941,0.381
		c0.065-3.34-0.072-6.657-0.549-9.937c3.331,0.111,6.689,0.282,9.999,0.069c0.729-0.047,0.73-1.087,0-1.134
		c-3.367-0.217-6.783-0.035-10.17,0.075c-0.373-2.186-0.869-4.359-1.677-6.499c-0.234-0.618-0.825-0.685-1.244-0.441
		c-0.814-1.479-1.687-2.929-2.565-4.378c4.556,0.269,9.107,0.528,13.674,0.58c0.895,0.01,0.873-1.309,0-1.376
		c-4.843-0.374-9.69-0.517-14.542-0.66c-2.174-3.504-4.481-6.946-6.778-10.394c13.278-0.029,26.557,0.292,39.83,0.589
		c0.977,0.022,0.958-1.44,0-1.506c-13.624-0.94-27.216-0.999-40.861-0.637c-2.014-3.036-3.997-6.09-5.856-9.203
		c4.117,0.061,8.222,0.081,12.34-0.073c0.705-0.026,0.707-1.07,0-1.097c-4.358-0.163-8.703-0.136-13.064-0.067
		c-1.777-3.049-3.393-6.176-4.808-9.4c5.739,0.112,11.471,0.248,17.211,0.098c0.849-0.022,0.851-1.298,0-1.32
		c-5.898-0.155-11.788-0.008-17.686,0.106c-0.82-1.959-1.585-3.944-2.209-5.998c-1.85-6.088-2.23-12.121-1.509-17.878
		c5.376,0.048,10.742,0.117,16.116-0.049c0.825-0.026,0.826-1.257,0-1.283c-5.309-0.165-10.612-0.099-15.922-0.051
		c0.657-4.13,1.938-8.085,3.715-11.787c5.173,0.694,10.295,0.998,15.512,0.587c0.871-0.069,0.897-1.392,0-1.376
		c-4.957,0.09-9.911-0.018-14.845-0.501c1.371-2.628,3.01-5.109,4.876-7.413c4.206,0.118,8.406,0.254,12.614,0.118
		c0.95-0.03,0.941-1.413,0-1.469c-3.751-0.222-7.502-0.225-11.256-0.221c2.955-3.323,6.433-6.196,10.289-8.547
		c2.741,0.219,5.483,0.427,8.23,0.542c1.087,0.046,1.059-1.583,0-1.673c-1.833-0.157-3.67-0.268-5.507-0.368
		c6.383-3.312,13.672-5.229,21.523-5.139c43.417,0.497,53.467,41.188,82.455,63.403c0.419,0.321,0.828,0.225,1.11-0.05
		c35.568,13.611,8.419,41.713-6.172,54.109C129.099,147.016,116.133,155.89,102.857,164.364z"/>
	<path d="M29.992,70.091c-3.529-0.567-7.129-0.574-10.696-0.733c-0.558-0.025-0.538,0.801,0,0.855
		c3.51,0.35,7.039,0.865,10.57,0.809C30.379,71.014,30.538,70.179,29.992,70.091z"/>
</g>
<g>
</g>
<g>
</g>
<g>
</g>
<g>
</g>
<g>
</g>
<g>
</g>
<g>
</g>
<g>
</g>
<g>
</g>
<g>
</g>
<g>
</g>
<g>
</g>
<g>
</g>
<g>
</g>
<g>
</g>
</svg>
