<?xml version="1.0" encoding="iso-8859-1"?>
<!-- Generator: Adobe Illustrator 16.0.0, SVG Export Plug-In . SVG Version: 6.00 Build 0)  -->
<!DOCTYPE svg PUBLIC "-//W3C//DTD SVG 1.1//EN" "http://www.w3.org/Graphics/SVG/1.1/DTD/svg11.dtd">
<svg version="1.1" id="Capa_1" xmlns="http://www.w3.org/2000/svg" xmlns:xlink="http://www.w3.org/1999/xlink" x="0px" y="0px"
	 width="612px" height="612px" viewBox="0 0 612 612" style="enable-background:new 0 0 612 612;" xml:space="preserve">
<g>
	<g>
		<path d="M306,541.385c-86.833,0-162.674-47.007-203.466-116.963H75.676C118.681,507.866,205.679,564.923,306,564.923
			c135.063,0,245.977-103.428,257.864-235.385H612l-58.846-70.615l-58.847,70.615h45.924
			C528.415,448.479,428.047,541.385,306,541.385z"/>
		<path d="M306,47.077c-126.919,0-232.513,91.329-254.663,211.846H0l58.846,70.615l58.846-70.615H75.323
			C97.143,151.494,192.121,70.615,306,70.615c76.877,0,145.138,36.838,188.096,93.848h28.764
			C476.606,93.777,396.765,47.077,306,47.077z"/>
	</g>
</g>
<g>
</g>
<g>
</g>
<g>
</g>
<g>
</g>
<g>
</g>
<g>
</g>
<g>
</g>
<g>
</g>
<g>
</g>
<g>
</g>
<g>
</g>
<g>
</g>
<g>
</g>
<g>
</g>
<g>
</g>
</svg>
