<?xml version="1.0" encoding="iso-8859-1"?>
<!-- Generator: Adobe Illustrator 16.0.0, SVG Export Plug-In . SVG Version: 6.00 Build 0)  -->
<!DOCTYPE svg PUBLIC "-//W3C//DTD SVG 1.1//EN" "http://www.w3.org/Graphics/SVG/1.1/DTD/svg11.dtd">
<svg version="1.1" id="Capa_1" xmlns="http://www.w3.org/2000/svg" xmlns:xlink="http://www.w3.org/1999/xlink" x="0px" y="0px"
	 width="764.749px" height="764.749px" viewBox="0 0 764.749 764.749" style="enable-background:new 0 0 764.749 764.749;"
	 xml:space="preserve">
<g>
	<g>
		<path d="M223.491,70.336c-0.665-3.018-2.934-5.43-5.906-6.28c-2.972-0.846-6.171-0.004-8.331,2.202
			c-0.564,0.581-0.922,0.792-0.93,0.846c-2.677-0.446-9.152-8.112-13.037-12.708c-9.341-11.05-20.963-24.802-36.9-24.802
			c-1.191,0-2.399,0.08-3.346,0.21c-20.378,2.033-29.18,13.411-32.977,22.592c-11.374,27.509,7.539,70.686,12.102,79.172
			l-0.072,0.042c26.326,48.834,106.298,93.876,109.691,95.77c1.28,0.715,2.694,1.069,4.104,1.069c1.772,0,3.54-0.56,5.021-1.663
			c2.661-1.983,3.911-5.338,3.199-8.571L223.491,70.336z M148.916,123.62c-0.13-0.249-0.278-0.484-0.434-0.716
			c-4.23-7.417-19.78-46.742-10.124-65.672c3.199-6.268,9.202-9.757,18.631-10.705c0.472-0.063,0.939-0.093,1.397-0.093
			c8.12,0,16.577,10.006,24.041,18.838c8.36,9.892,16.413,19.225,26.823,18.656l26.183,118.708
			C210.93,187.036,166.078,155.456,148.916,123.62z"/>
		<path d="M611.425,32.245c-17.596-2.366-30.451,12.688-40.479,24.566c-3.928,4.647-10.494,12.431-12.894,12.771
			c0-0.004-0.383-0.147-1.103-0.879c-2.168-2.198-5.372-3.048-8.331-2.189c-2.968,0.85-5.229,3.258-5.894,6.276l-32.603,147.765
			c-0.711,3.237,0.539,6.588,3.199,8.566c1.482,1.107,3.25,1.667,5.022,1.667c1.41,0,2.824-0.354,4.104-1.069
			c3.389-1.89,83.322-46.915,109.61-95.749l-0.08-0.046c4.706-8.642,23.539-51.107,12.254-78.898
			C640.462,45.74,631.66,34.248,611.425,32.245z M617.702,125.215c-0.173,0.252-0.328,0.509-0.472,0.774
			c-17.111,31.794-61.93,63.374-86.425,78.979L556.971,86.37c0.291,0.017,0.585,0.025,0.88,0.025c10.157,0,17.831-9.093,25.96-18.72
			c7.45-8.827,15.899-18.833,23.998-18.833c0.459,0,0.922,0.034,1.671,0.126c9.169,0.909,15.18,4.407,18.375,10.692
			C637.528,78.688,621.949,117.828,617.702,125.215z"/>
		<path d="M652.808,12.41l-0.396-0.215c-9.631-7.539-21.695-11.361-35.877-11.361c-18.244,0-35.878,6.386-45.567,10.616
			c-0.855-0.926-1.911-1.654-3.107-2.122C551.87,3.052,513.024,0,449.108,0c-99.21,0-227.401,7.627-248.723,8.941
			c-8.684-5.822-20.614-8.769-35.523-8.769c-8.899,0-16.72,1.069-20.479,1.583c-0.745,0.101-1.313,0.185-1.68,0.223
			c-0.61,0.025-1.221,0.113-1.814,0.273C104.552,11.904,83.324,30.3,77.784,56.925c-8.023,38.584,20.429,79.361,28.721,89.132
			c16.88,34.72,91.628,83.053,151.693,117.65c0.56,0.324,1.057,0.61,1.486,0.854c9.539,14.952,33.554,42.6,55.498,67.542
			c4.887,5.552,8.751,9.938,9.711,11.138c39.085,52.45-0.875,101.339-1.069,101.558c-0.354,0.278-0.682,0.586-0.989,0.914
			c-3.41,3.688-5.026,7.661-4.799,11.815c0.287,5.225,3.372,8.887,6.192,11.53c-25.16,41.228-52.678,46.005-53.814,46.182
			c-3.46,0.477-6.268,3.044-7.055,6.449c-0.252,1.091-1.031,4.677-1.57,8.701c-9.143,0.009-17.326,0.013-24.226,0.017
			c-9.556,0-17.73,3.216-23.64,9.299c-5.881,6.054-8.971,14.649-8.693,24.175c0.194,7.447,0.013,173.183,0,174.332
			c-0.135,7.695,2.017,13.887,6.39,18.399c5.068,5.229,12.729,7.838,23.337,7.981c4.508,0.101,35.738,0.155,92.828,0.155
			c68.847,0,157.587-0.079,199.445-0.134c9.581,0,17.769-3.221,23.679-9.312c5.868-6.05,8.94-14.637,8.65-24.192
			c-0.177-5.506-0.059-164.995,0.004-174.281c0.177-11.812-4.849-25.98-29.773-26.401c-2.223-0.042-11.201-0.076-26.726-0.093
			c-0.67-4.167-2.202-8.643-6.142-11.349c-0.224-0.156-0.455-0.299-0.695-0.434c-34.669-19.153-49.023-39.999-54.163-49.613
			c1.591-1.684,2.576-3.477,3.19-5.034c2.56-6.517,0.24-13.378-1.343-16.098c-0.273-0.467-0.593-0.913-0.951-1.317
			c-30.351-34.488-29.753-73.047,1.738-111.492c0.182-0.219,0.35-0.425,0.51-0.619c12.418-5.982,30.174-27.235,58.293-69.566
			c0.8-1.212,1.469-2.214,1.979-2.972c13.134-9.707,57.619-36.374,81.824-50.884c13.613-8.158,17.558-10.544,19.098-11.576
			c15.849-8.549,38.294-25.758,56.143-59.375l0.404-0.774c16.88-22.782,23.977-57.354,24.044-57.708
			C692.71,51.987,680.57,27.446,652.808,12.41z M542.726,556.653c-0.008,1.448-0.219,168.001,0.005,174.988
			c0.151,5.018-1.2,9.151-3.907,11.942c-2.664,2.745-6.672,4.197-11.601,4.197c-41.868,0.059-130.596,0.135-199.434,0.135
			c-70.946,0-89.435-0.084-92.52-0.151c-5.733-0.08-9.838-1.099-11.555-2.871c-1.145-1.183-1.701-3.33-1.646-6.433
			c0.013-1.199,0.194-167.533-0.004-175.038c-0.147-5.035,1.216-9.182,3.94-11.984c2.665-2.741,6.664-4.193,11.572-4.193
			c8.427-0.004,18.77-0.013,30.443-0.021c0.568,0.122,1.149,0.197,1.751,0.197h225.595c0.678,0,1.334-0.101,1.982-0.257
			c18.922,0.021,29.715,0.055,32.14,0.102C542.861,547.494,542.793,551.909,542.726,556.653z M670.463,78.305
			c-0.06,0.308-6.925,32.072-21.275,51.2c-0.122,0.16-0.235,0.324-0.345,0.492c-0.202,0.312-0.606,1.027-1.179,2.109
			c-16.025,30.182-35.844,45.294-49.643,52.657c-0.37,0.198-0.724,0.425-1.057,0.669c-1.405,0.943-9.627,5.868-18.319,11.08
			c-26.953,16.156-72.066,43.198-84.484,52.77c-0.678,0.522-1.271,1.141-1.764,1.844c-0.548,0.783-1.554,2.294-2.926,4.365
			c-36.024,54.248-48.435,62.785-52.101,63.938c-1.907,0.598-3.527,1.852-4.589,3.532c-0.244,0.315-0.623,0.774-1.111,1.364
			c-36.559,44.637-37.346,91.543-2.281,132.215c0.089,0.32,0.151,0.661,0.173,0.931c-0.135,0.059-0.312,0.126-0.543,0.198
			c-4.361,1.317-6.879,5.867-5.688,10.263c2.526,9.303,18.113,37.927,59.564,62.384c-11.534-0.008-25.093-0.008-40.781-0.008
			c-51.722,0-115.98,0.038-163.165,0.071c12.174-3.864,39.83-16.863,63.265-58.739c1.646-2.942,1.38-6.579-0.678-9.252
			c-1.284-1.667-2.804-2.98-4.273-4.256c-0.458-0.4-1.078-0.935-1.612-1.439c10.082-10.612,45.441-66.211,2.572-123.73
			c-1.385-1.734-4.972-5.813-10.406-11.988c-15.037-17.091-46.33-52.652-54.85-66.939c-0.699-1.17-1.671-2.155-2.833-2.871
			c-0.472-0.286-1.684-0.989-3.532-2.05c-81.542-46.965-134.493-87.456-145.27-111.084c-0.493-1.078-1.204-2.033-2.088-2.816
			c-4.508-4.719-33.192-45.155-24.327-77.56c5.005-18.298,21.712-31.407,49.659-38.963c0.568-0.059,1.267-0.143,2.08-0.257
			c3.65-0.497,10.444-1.427,18.202-1.427c12.435,0,22.012,2.441,27.699,7.059c1.646,1.33,3.704,2.012,5.847,1.865
			c1.415-0.084,143.241-9.092,250.701-9.092c69.077,0,97.841,3.679,109.602,7.147c0.652,1.313,1.2,2.375,1.2,2.375
			c1.035,2.012,2.841,3.511,5.005,4.18c2.159,0.661,4.504,0.43,6.495-0.652c0.224-0.122,22.79-12.216,45.13-12.216
			c10.436,0,19.095,2.681,25.725,7.96c0.758,0.623,1.485,1.019,2.534,1.587C665.849,38.622,674.727,56.289,670.463,78.305z"/>
		<path d="M309.238,244.638c-2.989-3.557-8.297-4.024-11.858-1.036c-3.561,2.993-4.028,8.301-1.036,11.862l48.586,57.868
			c0.282,0.315,28.342,31.887,29.424,60.031c0.177,4.534,3.906,8.095,8.406,8.095c0.109,0,0.219,0,0.329-0.008
			c4.648-0.177,8.268-4.087,8.091-8.735c-1.313-34.147-32.397-69.157-33.538-70.42L309.238,244.638z"/>
		<path d="M286.015,564.77h-21.582c-3.81-0.564-9.286,0.186-13.963,3.995c-7.067,5.754-10.317,16.644-9.661,32.366
			c1.288,30.928,0.004,98.691-0.004,99.373c-0.088,4.647,3.608,8.491,8.255,8.579c0.055,0,0.109,0,0.168,0
			c4.571,0,8.326-3.662,8.415-8.259c0.055-2.799,1.305-68.96-0.004-100.396c-0.585-14.018,2.656-17.844,3.309-18.471
			c0.32-0.304,0.636-0.472,0.943-0.51c0.75,0.278,0.8,0.151,1.793,0.151h22.344c4.647,0,8.419-3.771,8.419-8.419
			S290.662,564.77,286.015,564.77z"/>
	</g>
</g>
<g>
</g>
<g>
</g>
<g>
</g>
<g>
</g>
<g>
</g>
<g>
</g>
<g>
</g>
<g>
</g>
<g>
</g>
<g>
</g>
<g>
</g>
<g>
</g>
<g>
</g>
<g>
</g>
<g>
</g>
</svg>
