<?xml version="1.0" encoding="iso-8859-1"?>
<!-- Generator: Adobe Illustrator 19.0.0, SVG Export Plug-In . SVG Version: 6.00 Build 0)  -->
<svg version="1.1" id="Capa_1" xmlns="http://www.w3.org/2000/svg" xmlns:xlink="http://www.w3.org/1999/xlink" x="0px" y="0px"
	 viewBox="0 0 522.479 522.479" style="enable-background:new 0 0 522.479 522.479;" xml:space="preserve">
<g>
	<g>
		<path d="M438.582,149.185c2.09,2.068,4.876,3.178,7.685,3.178c6.008,0,10.885-4.876,10.885-10.885V43.517
			c0-6.008-4.855-10.885-10.885-10.885h-97.962c-4.397,0-8.381,2.634-10.057,6.748c-1.698,4.049-0.762,8.708,2.351,11.842
			L438.582,149.185z M65.305,263.843v247.712h152.385V359.171h87.077v152.385h152.385V263.843L261.228,67.92L65.305,263.843z
			 M519.498,264.736l-0.218-0.348L268.934,14.042c-4.158-4.158-11.233-4.158-15.391,0L3.197,264.388
			c-3.918,3.94-4.506,10.427-0.239,15.043c4.942,4.942,11.581,4.201,15.478,0.435l0.152-0.087l242.64-242.64l242.64,242.64
			l0.131,0.087c4.136,4.027,10.993,4.027,15.108,0l0.152-0.087C523.242,275.838,523.765,269.242,519.498,264.736z"/>
	</g>
</g>
<g>
</g>
<g>
</g>
<g>
</g>
<g>
</g>
<g>
</g>
<g>
</g>
<g>
</g>
<g>
</g>
<g>
</g>
<g>
</g>
<g>
</g>
<g>
</g>
<g>
</g>
<g>
</g>
<g>
</g>
</svg>
