<?xml version="1.0" encoding="iso-8859-1"?>
<!-- Generator: Adobe Illustrator 16.0.0, SVG Export Plug-In . SVG Version: 6.00 Build 0)  -->
<!DOCTYPE svg PUBLIC "-//W3C//DTD SVG 1.1//EN" "http://www.w3.org/Graphics/SVG/1.1/DTD/svg11.dtd">
<svg version="1.1" id="Capa_1" xmlns="http://www.w3.org/2000/svg" xmlns:xlink="http://www.w3.org/1999/xlink" x="0px" y="0px"
	 width="738.918px" height="738.918px" viewBox="0 0 738.918 738.918" style="enable-background:new 0 0 738.918 738.918;"
	 xml:space="preserve">
<g>
	<g>
		<path d="M444.381,475.547c-7.122-10.59-17.344-21.449-30.251-32.176c-3.923-3.402-11.754-9.158-23.993-17.631
			c-9.464-6.422-16.586-12.027-21.218-16.715c-11.481-11.43-17.299-22.498-17.299-32.889c0-6.443,1.4-11.523,4.289-15.542
			c3.286-4.586,7.848-6.725,14.348-6.725c6.423,0,11.191,1.508,14.212,4.508c4.114,4.057,8.121,12.45,8.515,16.444
			c0.779,8.354,6.51,12.092,11.838,12.092c1.251,0,2.328-0.191,3.157-0.41l39.967-6.047c5.245-0.621,10.321-5.291,10.122-13.253
			c-0.166-6.484-5.801-22.921-11.899-32.157c-6.928-10.458-16.093-18.69-27.26-24.47c-6.732-3.468-14.41-6.137-22.896-7.956
			c0.095-10.246,0.203-27.172-0.096-30.569c-0.53-6.617-5.369-11.237-11.771-11.237c-0.435,0-0.828,0.021-1.16,0.054h-15.976
			c-0.091,0-0.183-0.004-0.253-0.004c-3.331,0-6.48,1.289-8.655,3.534c-2.15,2.221-3.269,5.274-3.157,8.585
			c0.083,2.482,0.058,17.033,0.025,27.487c-14.27,1.579-26.845,5.677-37.514,12.256c-22.892,14.563-34.501,36.217-34.501,64.363
			c0,15.516,4.181,30.109,12.529,43.547c7.458,11.348,20,24.143,37.353,38.076c14.464,11.383,26.331,20.697,35.562,27.939
			l9.074,7.127c10.62,9.604,16.006,19.021,16.006,27.992c0,6.031-1.106,10.486-3.394,13.379
			c-5.125,6.773-11.485,10.021-20.128,10.229l-0.862,0.018c-5.299,0-9.907-1.844-14.158-5.711c-2.32-2.051-6.281-8.34-12.008-26.674
			c-0.319-1.027-0.571-1.822-0.766-2.395c-1.745-4.965-6.054-8.051-11.253-8.051c-0.878,0-1.653,0.086-2.283,0.203l-39.25,2.332
			c-0.008,0-0.017,0-0.025,0c-3.025,0-5.958,1.201-8.038,3.295c-1.55,1.557-3.394,4.35-3.373,8.754
			c0,5.904,5.568,28.502,11.775,39.764c7.002,12.633,16.668,22.781,28.63,30.098c10.184,6.418,22.465,10.574,36.594,12.385v29.305
			c-0.066,1.721,0.149,5.734,3.128,9.145c2.192,2.512,5.37,3.994,8.892,4.178c1.674,0.094,3.683,0.133,5.784,0.133
			c2.139,0,4.376-0.039,6.418-0.072c1.637-0.023,3.137-0.049,4.343-0.049c7.942,0,12.343-6.426,12.442-12.611v-31.002
			c2.055-0.381,4.077-0.824,6.054-1.32c16.461-4.223,29.521-11.705,38.756-22.172c13.855-15.311,20.68-33.904,20.286-55.318
			c-0.216-9.045-3.021-19.141-8.374-30.076C450.348,484.908,447.551,480.188,444.381,475.547z M428.384,563.887
			c-7.061,8.006-17.328,13.777-30.479,17.15c-3.539,0.895-7.313,1.574-11.204,2.025c-4.181,0.484-7.338,4.023-7.338,8.232
			l0.009,34.217c-0.157,0.004-0.319,0.004-0.48,0.008c-2.354,0.037-4.964,0.088-7.38,0.062v-33.701c0-4.367-3.385-7.98-7.74-8.271
			c-14.634-0.961-26.948-4.533-36.685-10.672c-9.72-5.947-17.199-13.814-22.871-24.037c-3.949-7.162-7.533-20.484-9.003-27.539
			l32.359-1.928c4.036,12.732,9.132,26.256,16.296,32.596c7.263,6.596,15.749,9.943,25.225,9.943c0.485,0,0.974-0.008,1.363-0.023
			c13.607-0.328,24.657-5.979,32.729-16.652c4.558-5.752,6.865-13.666,6.865-23.525c0-13.932-7.305-27.559-21.702-40.502
			c-0.137-0.125-0.273-0.24-0.423-0.352l-9.302-7.301c-9.223-7.238-21.085-16.549-35.476-27.873
			c-15.931-12.799-27.309-24.305-33.702-34.029c-6.675-10.744-9.923-22.07-9.923-34.621c0-22.416,8.771-38.894,26.725-50.317
			c10.068-6.207,22.635-9.691,37.348-10.35c4.413-0.199,7.893-3.824,7.914-8.245c0.013-2.577,0.087-21.247,0.05-30.735h7.947
			c0.074,6.638,0,19.896-0.142,31.974c-0.05,4.135,2.954,7.669,7.04,8.291c9.566,1.458,17.949,4.015,24.897,7.595
			c8.738,4.524,15.624,10.706,21.039,18.889c3.825,5.789,7.276,15.393,8.594,20.568l-32.086,4.852
			c-1.86-7.827-7.089-17.464-12.72-23.013c-6.211-6.173-14.916-9.302-25.872-9.302c-11.812,0-21.433,4.719-27.813,13.64
			c-4.91,6.828-7.396,15.305-7.396,25.204c0,14.957,7.462,29.977,22.134,44.586c5.341,5.404,13.3,11.705,23.583,18.684
			c11.515,7.975,19.089,13.523,22.644,16.598c11.825,9.828,20.978,19.512,27.255,28.842c2.78,4.068,5.191,8.133,7.139,12.031
			c4.264,8.715,6.51,16.496,6.663,23.084C444.778,537.213,439.546,551.557,428.384,563.887z"/>
		<path d="M578.824,243.359c-11.548-11.729-23.211-22.589-35.55-34.083c-22.797-21.234-48.614-45.287-78.343-79.693
			c0.857-3.041,1.376-6.688,1.376-11.133c0-3.799-0.029-4.959-0.062-6.219c-0.029-1.152-0.058-2.395-0.07-6.079
			c0.021-0.236,0.033-0.477,0.033-0.717l0.004-1.549c0.004-1.078,0.009-2.126-0.004-2.934c0.008-3.609-0.244-8.175-1.687-12.476
			l34.303-76.809c1.144-2.565,0.916-5.532-0.613-7.889C496.687,1.421,494.067,0,491.259,0H231.948c-2.846,0-5.49,1.458-7.006,3.866
			s-1.695,5.419-0.472,7.988l35.367,74.203c-1.624,3.427-2.66,7.802-2.817,13.271c-0.087,0.472-0.128,0.957-0.132,1.45
			c-0.038,8.353,0.041,10.193,0.107,11.867c0.046,1.156,0.087,2.221,0.083,5.714c0,5.27,0.804,9.546,2.134,13.018
			c-27.557,38.156-51.966,62.138-73.544,83.31c-14.373,14.108-27.955,27.438-40.861,43.261
			c-52.459,53.233-81.346,122.171-81.346,194.166c0,158.143,137.281,286.805,306.019,286.805
			c168.721,0,305.981-128.662,305.981-286.805C675.459,372.383,641.144,298.254,578.824,243.359z M274.72,125.726
			c-0.514-1.251-1.073-3.542-1.073-7.354c0.008-3.903-0.042-5.101-0.091-6.393c-0.062-1.475-0.12-3.095-0.1-9.799
			c0.079-0.456,0.116-0.924,0.116-1.396c0-2.855,0.315-4.831,0.684-6.186h174.787c0.315,1.301,0.597,3.298,0.593,6.463
			c0.013,0.854,0.008,1.79,0.004,2.755v0.866c-0.024,0.257-0.037,0.514-0.037,0.775c0.008,4.491,0.046,5.892,0.074,7.185
			c0.033,1.181,0.059,2.262,0.059,5.813c0,3.957-0.46,6.107-0.862,7.267L274.72,125.726z M478.48,16.574l-26.662,59.709
			c-1.5-0.369-3.161-0.605-5.047-0.605L288.72,75.591c-4.947,0-9.405,0-12.815-0.029c-0.87,0-1.744,0.079-2.614,0.203
			l-28.212-59.191H478.48z M369.478,722.346c-159.601,0-289.445-121.227-289.445-270.232c0-67.736,27.288-132.653,76.842-182.805
			c0.187-0.19,0.365-0.389,0.535-0.596c12.393-15.244,25.738-28.336,39.867-42.204c21.699-21.293,46.194-45.345,74.012-83.546
			c1.55,0.415,3.133,0.625,4.699,0.625h12.77c26.849,0.008,74.219,0.038,129.143,0.095c17.282-0.029,27.785,0,28.892,0.008
			c0.021,0,0.042,0,0.062,0c2.146,0,4.715-0.302,7.28-1.272c29.579,34.017,55.185,57.866,77.853,78.976
			c12.277,11.436,23.878,22.237,35.239,33.789c0.141,0.145,0.286,0.282,0.436,0.415c58.831,51.725,91.231,121.511,91.231,196.507
			C658.886,601.119,529.059,722.346,369.478,722.346z"/>
		<path d="M138.934,356.712c0.878,0.294,1.769,0.435,2.644,0.435c3.464,0,6.691-2.188,7.855-5.647
			c21.952-65.291,145.779-160.637,147.026-161.59c3.634-2.78,4.326-7.984,1.542-11.618c-2.78-3.633-7.972-4.321-11.618-1.545
			c-5.262,4.027-129.102,99.391-152.661,169.475C132.259,350.556,134.596,355.258,138.934,356.712z"/>
		<path d="M269.196,664.447c-158.416-69.311-156.78-223.811-156.63-230.445c0.112-4.574-3.501-8.373-8.076-8.49
			c-4.549-0.104-8.374,3.506-8.489,8.08c-0.046,1.711-2.329,172.156,166.549,246.039c1.082,0.473,2.208,0.697,3.319,0.697
			c3.195,0,6.236-1.857,7.595-4.969C275.304,671.166,273.39,666.281,269.196,664.447z"/>
		<path d="M283.897,63.016c1.396,3.029,4.396,4.814,7.524,4.814c1.164,0,2.341-0.249,3.468-0.767
			c4.156-1.918,5.971-6.84,4.052-10.996l-13.234-28.672c-1.914-4.156-6.84-5.954-10.992-4.052c-4.156,1.918-5.966,6.84-4.052,10.997
			L283.897,63.016z"/>
	</g>
</g>
<g>
</g>
<g>
</g>
<g>
</g>
<g>
</g>
<g>
</g>
<g>
</g>
<g>
</g>
<g>
</g>
<g>
</g>
<g>
</g>
<g>
</g>
<g>
</g>
<g>
</g>
<g>
</g>
<g>
</g>
</svg>
