<?xml version="1.0" encoding="iso-8859-1"?>
<!-- Generator: Adobe Illustrator 16.0.0, SVG Export Plug-In . SVG Version: 6.00 Build 0)  -->
<!DOCTYPE svg PUBLIC "-//W3C//DTD SVG 1.1//EN" "http://www.w3.org/Graphics/SVG/1.1/DTD/svg11.dtd">
<svg version="1.1" id="Capa_1" xmlns="http://www.w3.org/2000/svg" xmlns:xlink="http://www.w3.org/1999/xlink" x="0px" y="0px"
	 width="464.595px" height="464.596px" viewBox="0 0 464.595 464.596" style="enable-background:new 0 0 464.595 464.596;"
	 xml:space="preserve">
<g>
	<g>
		<path d="M264.995,265.622c0.645-4.142,0.822-8.372,1.006-12.556c0.182-4.153,0.269-8.312,0.291-12.471
			c0.051-8.954-0.184-17.909-0.57-26.854c-0.717-16.63-1.955-33.238-3.496-49.811c-0.7-7.554-1.442-15.107-2.334-22.642l0,0
			c19.519-11.89,37.152-27.594,49.894-46.669c5.262-7.88,9.534-16.188,13.133-24.945c2.959-6.927,4.688-14.335,6.336-21.657
			c1.572-7.137-2.832-14.521-9.883-16.475c-7.004-1.94-14.525,2.039-16.881,8.909c-1.33,3.89-2.601,7.824-4.337,11.558
			c-2.622,5.642-5.668,10.927-9.151,16.078C282.951,77.03,275,84.844,266.476,91.433c-9.766,7.551-20.629,13.736-32.065,18.375
			c-15.033,5.099-27.408,5.536-46.768,2.021c-22.621-4.195-45.146-14.004-61.971-29.973c-4.6-4.365-8.631-9.143-12.412-14.221
			c-2.545-3.42-4.615-7.173-6.75-10.854c-3.742-6.398-12.129-8.717-18.643-5.202c-6.307,3.405-9.002,11.325-6.109,17.876
			c1.744,3.952,3.564,7.829,5.523,11.68c2.824,5.558,6.377,10.778,10.063,15.792c7.492,10.19,16.658,18.99,26.617,26.739
			c12.305,9.573,26.367,17.022,40.861,22.667c0.305,7.763,0.604,15.525,0.9,23.288c0.617,16.217,1.223,32.435,1.797,48.654
			c0.281,7.965,0.555,15.931,0.811,23.896c0.279,8.709,0.092,17.583,1.662,26.177c0.809,4.436,2.143,8.795,4.285,12.777
			c0.178,25.128-1.658,50.33-4.537,75.279c-1.467,12.729-3.197,25.411-5.166,38.071c-1.768,11.37-3.939,22.671-6.096,33.973
			c-0.143,0.743-0.285,1.487-0.426,2.231c-1.668,8.907,4.193,17.776,13.012,19.794c8.662,1.982,17.637-3.266,20.176-11.773
			c2.848-9.498,5.633-19.002,8.305-28.552c3.412-12.193,6.396-24.494,9.33-36.812c5.24-22.012,9.4-44.402,12.473-66.818
			c2.143-0.188,4.246-0.521,6.305-0.982c7.772,24.463,11.375,50.256,11.254,75.899c-0.082,17.402-1.978,34.596-4.947,51.725
			c-1.465,8.9,4.531,17.613,13.344,19.478c8.789,1.858,17.748-3.679,20.039-12.358c2.502-9.463,4.756-18.931,6.646-28.535
			c2.44-12.415,3.875-25.036,4.723-37.652c0.898-13.371,1.029-26.96-0.119-40.322C276.868,310.617,272.609,287.584,264.995,265.622z
			"/>
		<path d="M278.59,333.768C278.857,336.86,278.476,332.219,278.59,333.768L278.59,333.768z"/>
		<path d="M182.646,95.61c7.627,5.021,16.656,7.708,25.783,7.708c18.088,0,34.945-10.756,42.58-27.154
			c7.736-16.614,4.871-36.773-7.151-50.591c-11.994-13.786-31.424-19.425-48.939-14.171c-17.131,5.139-30.172,20.107-32.887,37.788
			C159.265,67.206,167.423,85.587,182.646,95.61z"/>
		<path d="M362.985,193.383c2.171,0.414,4.38,0.619,6.589,0.619c8.965,0,17.709-3.508,24.188-9.704
			c6.445-6.167,10.351-14.704,10.771-23.617c0.426-8.995-2.679-17.936-8.607-24.714c-5.85-6.686-14.166-10.972-23.014-11.809
			c-8.994-0.852-18.111,1.843-25.172,7.485c-6.914,5.526-11.568,13.615-12.816,22.383c-1.277,8.968,1.006,18.237,6.34,25.562
			C346.459,186.722,354.309,191.731,362.985,193.383z"/>
		<path d="M456.79,139.921c-5.174-1.324-10.656,1.646-12.387,6.694c-1.437,4.195-2.896,8.418-5.021,12.326
			c-2.928,5.379-6.279,10.486-10.396,15.04c-8.377,9.271-18.648,16.594-29.921,21.954c-3.42,1.626-6.975,3.111-10.573,4.3
			c-11.689,3.612-24.422,3.505-36.146,0.111c-5.338-1.545-10.508-4.013-15.391-6.634c-5.553-2.979-10.812-6.44-15.721-10.389
			c-6.49-5.218-12.099-11.436-16.697-18.368c-3.777-5.693-6.338-11.955-8.531-18.389c-1.814-5.227-7.625-8.136-12.899-6.495
			c-5.097,1.585-8.205,6.982-7.037,12.185c1.02,4.544,2.178,8.986,3.697,13.393c2,5.808,4.704,11.438,7.87,16.699
			c6.496,10.793,14.883,20.333,24.594,28.352c7.224,5.964,15.048,11.184,23.359,15.505c-0.344,3.235-0.152,6.506-0.074,9.751
			c0.121,5.02,0.244,10.039,0.365,15.059c0.307,12.617,0.611,25.233,0.918,37.849c0.203,8.408-0.371,17.377,2.812,25.313
			L327.792,441.11c-0.598,6.662,4.26,12.85,10.887,13.805c6.664,0.961,13.088-3.642,14.34-10.252l18.504-97.847l12.871,97.234
			c0.904,6.661,7.066,11.618,13.771,11.027c6.709-0.591,11.908-6.543,11.606-13.27l-5.67-127.033
			c1.873-4.426,2.867-9.307,2.742-14.424c-0.182-7.474-0.361-14.948-0.543-22.422c-0.303-12.498-0.604-24.996-0.908-37.494
			c-0.114-4.728,0.029-9.562-0.479-14.271c11.455-5.956,22.367-13.625,31.422-22.861c7.6-7.401,13.979-16.082,18.963-25.431
			c4.314-8.091,7.07-16.701,9.061-25.617C465.547,146.858,462.149,141.293,456.79,139.921z"/>
		<path d="M436.333,203.304C435.159,204.501,437.528,202.14,436.333,203.304L436.333,203.304z"/>
		<path d="M73.64,266.796c0.375,0,0.75-0.008,1.125-0.024c8.982-0.386,17.285-5.602,21.559-13.507
			c4.352-8.045,4.041-18.089-0.795-25.85c-4.777-7.668-13.42-12.351-22.453-12.157c-9.002,0.193-17.42,5.234-21.865,13.063
			c-4.514,7.954-4.41,18.002,0.266,25.862C56.087,261.933,64.62,266.796,73.64,266.796z"/>
		<path d="M127.987,252.445c-5.879,5.015-12.18,9.694-19.359,12.82c-56.332,24.531-81.52-15.094-89.068-27.058
			c-2.168-3.871-3.369-7.141-4.688-11.253c-1.367-3.991-5.711-6.117-9.701-4.757c0.994-0.34,2.051-0.703-0.012,0.003
			c-1.781,0.611-0.934,0.321-0.012,0.005c-3.705,1.277-5.791,5.16-4.969,8.901c0.059,0.256,0.115,0.513,0.172,0.769
			c2.578,11.496,7.67,21.985,15.201,31.069c7.756,9.354,17.639,16.992,28.402,22.583l-1.75,42.264l-14.401,56.326
			c-0.281,1.432,0.09,2.897,1.016,4.022c0.928,1.126,2.295,1.772,3.752,1.772h10.252l-2.449,55.42
			c-0.221,5.002,3.686,9.408,8.682,9.777c4.893,0.36,9.354-3.284,10.004-8.143l7.48-57.056h4.857l10.764,57.532
			c0.9,4.817,5.537,8.205,10.402,7.589c4.949-0.627,8.615-5.213,8.176-10.179l-5.063-54.942h10.107c1.457,0,2.822-0.646,3.748-1.768
			c0.928-1.123,1.301-2.587,1.018-4.043l-16.76-57.399l1.342-37.514c9.229-1.176,17.723-4.932,25.539-9.863
			c3.791-2.474,7.242-5.271,10.57-8.333c2.609-2.398,4.941-4.951,7.328-7.568c2.584-2.836,2.629-7.3,0.094-10.184
			C135.95,250.161,131.124,249.792,127.987,252.445z"/>
	</g>
</g>
<g>
</g>
<g>
</g>
<g>
</g>
<g>
</g>
<g>
</g>
<g>
</g>
<g>
</g>
<g>
</g>
<g>
</g>
<g>
</g>
<g>
</g>
<g>
</g>
<g>
</g>
<g>
</g>
<g>
</g>
</svg>
