<?xml version="1.0" encoding="iso-8859-1"?>
<!-- Generator: Adobe Illustrator 19.1.0, SVG Export Plug-In . SVG Version: 6.00 Build 0)  -->
<svg version="1.1" id="Capa_1" xmlns="http://www.w3.org/2000/svg" xmlns:xlink="http://www.w3.org/1999/xlink" x="0px" y="0px"
	 viewBox="0 0 429.274 429.274" style="enable-background:new 0 0 429.274 429.274;" xml:space="preserve">
<g>
	<g>
		<path d="M18.949,429.274h390.346c4.973,0,9.945-2.486,12.431-7.459c2.486-4.973,0-9.945-2.486-12.431L28.894,4.119
			c-4.973-4.973-9.945-4.973-14.918-2.486c-4.973,0-7.459,4.973-7.459,9.945v405.264C6.517,424.301,11.49,429.274,18.949,429.274z
			 M31.38,43.9l348.08,360.511h-74.588v-24.863c0-7.459-4.973-12.431-12.431-12.431c-7.459,0-12.431,4.973-12.431,12.431v24.863
			h-24.863v-24.863c0-7.459-4.973-12.431-12.431-12.431c-7.459,0-12.431,4.973-12.431,12.431v24.863H205.42v-24.863
			c0-7.459-4.973-12.431-12.431-12.431s-12.431,4.973-12.431,12.431v24.863h-24.863v-24.863c0-7.459-4.973-12.431-12.431-12.431
			c-7.459,0-12.431,4.973-12.431,12.431v24.863h-24.863v-24.863c0-7.459-4.973-12.431-12.431-12.431
			c-7.459,0-12.431,4.973-12.431,12.431v24.863H31.38v-49.726h24.863c7.459,0,12.431-4.973,12.431-12.431
			s-4.973-12.431-12.431-12.431H31.38V304.96h24.863c7.459,0,12.431-4.973,12.431-12.431c0-7.459-4.973-12.431-12.431-12.431H31.38
			v-24.863h24.863c7.459,0,12.431-4.973,12.431-12.431s-4.973-12.431-12.431-12.431H31.38v-24.863h24.863
			c7.459,0,12.431-4.973,12.431-12.431c0-7.459-4.973-12.431-12.431-12.431H31.38v-24.863h24.863
			c7.459,0,12.431-4.973,12.431-12.431c0-7.459-4.973-12.431-12.431-12.431H31.38V43.9z"/>
		<path d="M93.537,354.685h149.177c4.973,0,9.945-2.486,12.431-7.459c2.486-4.973,0-9.945-2.486-12.431L103.482,178.159
			c-2.486-2.486-9.945-4.973-12.431-2.486c-7.459,0-9.945,4.973-9.945,9.945v156.636C81.106,349.713,86.078,354.685,93.537,354.685z
			 M105.969,217.94l106.91,111.883h-106.91V217.94z"/>
	</g>
</g>
<g>
</g>
<g>
</g>
<g>
</g>
<g>
</g>
<g>
</g>
<g>
</g>
<g>
</g>
<g>
</g>
<g>
</g>
<g>
</g>
<g>
</g>
<g>
</g>
<g>
</g>
<g>
</g>
<g>
</g>
</svg>
