<?xml version="1.0" encoding="iso-8859-1"?>
<!-- Generator: Adobe Illustrator 19.1.0, SVG Export Plug-In . SVG Version: 6.00 Build 0)  -->
<svg version="1.1" id="Capa_1" xmlns="http://www.w3.org/2000/svg" xmlns:xlink="http://www.w3.org/1999/xlink" x="0px" y="0px"
	 viewBox="0 0 516.374 516.374" style="enable-background:new 0 0 516.374 516.374;" xml:space="preserve">
<g>
	<path d="M494.618,397.646c-9.672-9.665-84.057-79.792-147.039-139.067c67.939-63.938,137.667-129.699,147.038-139.069
		c22.229-22.229,26.951-67.233,0-94.177c-26.778-26.772-71.554-22.015-93.693,0.138c-7.723,7.723-55.387,58.125-141.796,149.941
		c-18.615-17.493-32.579-30.61-38.586-36.252c1.669-8.01,2.619-17.545,2.831-28.432c0.03-1.555,0.045-3.138,0.045-4.749
		c0-35.096-10.164-62.227-30.215-80.646c-31.128-28.604-74.368-25.299-76.18-25.14L114.506,0.4l-11.055,11.056l52.726,52.54
		c0.743,0.741,1.402,1.548,1.973,2.406c0.381,0.572,0.722,1.166,1.023,1.778c0.301,0.612,0.562,1.243,0.781,1.887
		c0.986,2.898,1.129,6.07,0.316,9.112l-13.994,52.61c-0.719,2.703-2.14,5.122-4.057,7.046c-1.677,1.684-3.734,2.991-6.034,3.779
		c-0.328,0.113-0.662,0.215-1,0.306l-52.568,14.188c-1.355,0.367-2.734,0.544-4.103,0.542c-0.684-0.001-1.366-0.047-2.041-0.136
		c-2.024-0.268-3.984-0.927-5.764-1.944c-0.593-0.339-1.166-0.718-1.715-1.135c-0.549-0.417-1.073-0.872-1.568-1.365l-52.713-52.534
		L3.671,111.578l-0.207,2.517c-0.02,0.227-0.089,1.102-0.138,2.519c-0.347,9.92,0.254,46.43,25.264,73.661
		c18.421,20.045,45.559,30.209,80.648,30.209c0.001,0,0.002,0,0.003,0s0.002,0,0.004,0c12.885,0,24.022-0.968,33.182-2.875
		c7.875,8.385,30.298,32.259,58.871,62.655l-87.117,86.951c-1.314,1.314-3.056,2.033-4.902,2.033H58.336L4.302,453.165
		l63.216,63.209l83.917-54.033v-51.165c0-1.86,0.726-3.602,2.033-4.909l85.756-85.666
		c98.883,105.121,153.28,162.676,161.694,171.083c10.592,10.592,27.013,17.486,43.925,18.44c1.39,0.083,2.759,0.124,4.128,0.124
		c2.2,0,4.375-0.101,6.522-0.301c15.03-1.401,28.652-7.657,39.125-18.111c12.631-12.634,18.305-29.236,18.478-45.599
		C513.294,427.693,506.428,409.455,494.618,397.646z M445.631,496.324c-13.621-0.768-26.681-6.161-34.93-14.416
		c-8.208-8.203-64.075-67.325-161.687-171.087l27.676-27.647l7.225,7.26c8.076,8.117,20.923,8.346,29.268,0.505
		c7.953-7.479,16.089-15.134,24.297-22.856c67.558,63.577,138.134,130.129,147.354,139.345c15.211,15.211,22.775,51.849,0,74.631
		c-0.629,0.628-1.273,1.237-1.932,1.826C473.014,492.718,459.824,497.069,445.631,496.324z M149.797,205.252l-2.8-2.987h-0.001
		l-0.007-0.007l-2.873,0.746l-1.081,0.277c-8.732,2.247-20.099,3.381-33.782,3.381c-31.01,0-54.684-8.628-70.386-25.651
		c-18.085-19.612-21.271-45.901-21.689-58.465l40.467,40.322c7.453,7.44,18.405,10.344,28.562,7.606l52.568-14.188
		c1.905-0.513,3.734-1.213,5.466-2.077c7.511-3.743,13.206-10.591,15.409-18.866l13.994-52.61
		c2.704-10.164-0.242-21.095-7.695-28.528l-40.454-40.308c12.53,0.397,38.66,3.543,58.339,21.626
		c17.078,15.688,25.741,39.397,25.741,70.462c0,13.684-1.134,25.043-3.381,33.776l-1.016,3.962l2.987,2.793
		c0.644,0.604,17.001,15.965,41.482,38.971c-6.524,6.933-13.249,14.082-20.186,21.458c-7.792,8.297-7.606,21.122,0.401,29.212
		l7.771,7.841L211.09,270.49c-16.689-17.754-31.247-33.246-41.987-44.678C157.039,212.968,149.797,205.252,149.797,205.252z
		 M259.723,194.957c19.663,18.481,43.253,40.661,67.669,63.634c-8,7.527-15.931,14.988-23.687,22.281
		c-2.835,2.669-7.225,2.599-9.991-0.18l-7.246-7.281l-46.794-46.988c-2.745-2.773-2.807-7.17-0.145-9.998
		C246.47,209.045,253.197,201.893,259.723,194.957z M247.376,253.796l19.539,19.588l-27.383,27.355
		c-6.499-6.91-12.848-13.662-18.972-20.176L247.376,253.796z M410.695,35.254c15.508-15.508,51.199-23.058,74.14-0.138
		c10.074,10.074,15.163,24.089,14.34,39.473c-0.733,13.565-6.223,27.034-14.34,35.151c-9.291,9.291-79.295,75.31-147.348,139.351
		c-24.624-23.168-48.438-45.558-68.284-64.21C355.494,93.179,403.053,42.889,410.695,35.254z M143.684,396.49
		c-3.927,3.921-6.084,9.134-6.084,14.686v43.614l-68.194,43.919l-47.438-47.431l43.925-68.201h43.387
		c5.538,0,10.745-2.158,14.665-6.071l86.823-86.668c6.128,6.518,12.477,13.27,18.975,20.18L143.684,396.49z"/>
</g>
<g>
</g>
<g>
</g>
<g>
</g>
<g>
</g>
<g>
</g>
<g>
</g>
<g>
</g>
<g>
</g>
<g>
</g>
<g>
</g>
<g>
</g>
<g>
</g>
<g>
</g>
<g>
</g>
<g>
</g>
</svg>
