<?xml version="1.0" encoding="iso-8859-1"?>
<!-- Generator: Adobe Illustrator 16.0.0, SVG Export Plug-In . SVG Version: 6.00 Build 0)  -->
<!DOCTYPE svg PUBLIC "-//W3C//DTD SVG 1.1//EN" "http://www.w3.org/Graphics/SVG/1.1/DTD/svg11.dtd">
<svg version="1.1" id="Capa_1" xmlns="http://www.w3.org/2000/svg" xmlns:xlink="http://www.w3.org/1999/xlink" x="0px" y="0px"
	 width="58px" height="58px" viewBox="0 0 58 58" style="enable-background:new 0 0 58 58;" xml:space="preserve">
<g>
	<g>
		<path d="M11,5.917H7c-1.654,0-3,1.346-3,3v24.5H3c-1.654,0-3,1.346-3,3v4c0,1.654,1.346,3,3,3h1v5.667c0,1.654,1.346,3,3,3h4
			c1.654,0,3-1.346,3-3v-5.667h1c1.654,0,3-1.346,3-3v-4c0-1.654-1.346-3-3-3h-1v-24.5C14,7.263,12.654,5.917,11,5.917z M6,8.917
			c0-0.551,0.448-1,1-1h4c0.552,0,1,0.449,1,1v24.5H6V8.917z M12,49.083c0,0.552-0.448,1-1,1H7c-0.552,0-1-0.448-1-1v-5.667h6
			V49.083z M16,36.417v4c0,0.551-0.448,1-1,1h-2H5H3c-0.552,0-1-0.449-1-1v-4c0-0.551,0.448-1,1-1h2h8h2
			C15.552,35.417,16,35.866,16,36.417z"/>
		<path d="M31,5.917h-4c-1.654,0-3,1.346-3,3v14.5h-1c-1.654,0-3,1.346-3,3v4c0,1.654,1.346,3,3,3h1v15.667c0,1.654,1.346,3,3,3h4
			c1.654,0,3-1.346,3-3V33.417h1c1.654,0,3-1.346,3-3v-4c0-1.654-1.346-3-3-3h-1v-14.5C34,7.263,32.654,5.917,31,5.917z M26,8.917
			c0-0.551,0.448-1,1-1h4c0.552,0,1,0.449,1,1v14.5h-6V8.917z M32,49.083c0,0.552-0.448,1-1,1h-4c-0.552,0-1-0.448-1-1V33.417h6
			V49.083z M36,26.417v4c0,0.551-0.448,1-1,1h-2h-8h-2c-0.552,0-1-0.449-1-1v-4c0-0.551,0.448-1,1-1h2h8h2
			C35.552,25.417,36,25.866,36,26.417z"/>
		<path d="M55,30.417h-1v-21.5c0-1.654-1.346-3-3-3h-4c-1.654,0-3,1.346-3,3v21.5h-1c-1.654,0-3,1.346-3,3v4c0,1.654,1.346,3,3,3h1
			v8.667c0,1.654,1.346,3,3,3h4c1.654,0,3-1.346,3-3v-8.667h1c1.654,0,3-1.346,3-3v-4C58,31.762,56.654,30.417,55,30.417z M46,8.917
			c0-0.551,0.448-1,1-1h4c0.552,0,1,0.449,1,1v21.5h-6V8.917z M52,49.083c0,0.552-0.448,1-1,1h-4c-0.552,0-1-0.448-1-1v-8.667h6
			V49.083z M56,37.417c0,0.551-0.448,1-1,1h-2h-8h-2c-0.552,0-1-0.449-1-1v-4c0-0.551,0.448-1,1-1h2h8h2c0.552,0,1,0.449,1,1V37.417
			z"/>
	</g>
</g>
<g>
</g>
<g>
</g>
<g>
</g>
<g>
</g>
<g>
</g>
<g>
</g>
<g>
</g>
<g>
</g>
<g>
</g>
<g>
</g>
<g>
</g>
<g>
</g>
<g>
</g>
<g>
</g>
<g>
</g>
</svg>
