<?xml version="1.0" encoding="iso-8859-1"?>
<!-- Generator: Adobe Illustrator 18.1.1, SVG Export Plug-In . SVG Version: 6.00 Build 0)  -->
<svg version="1.1" id="Capa_1" xmlns="http://www.w3.org/2000/svg" xmlns:xlink="http://www.w3.org/1999/xlink" x="0px" y="0px"
	 viewBox="0 0 20.419 20.419" style="enable-background:new 0 0 20.419 20.419;" xml:space="preserve">
<g>
	<g>
		<path style="fill:#030104;" d="M18.982,18.338l-3.753-4.232l0.012-0.008l-0.045-0.029l-0.883-0.996
			c-0.085-0.098-0.187-0.173-0.293-0.237c-0.497-0.77-1.006-1.988-1.036-3.751c0.148-0.53,0.219-1.099,0.204-1.698
			c-0.007-0.276-0.074-0.63-0.163-0.992c-0.215,0.116-0.444,0.201-0.681,0.264C12.63,8.38,12.178,10.018,10.961,11
			c-2.029,1.643-5.399,0.84-7.526-1.791S1.228,3.115,3.257,1.474c1.583-1.28,3.98-1.068,5.97,0.334
			c0.06-0.073,0.117-0.148,0.185-0.216C9.5,1.503,9.595,1.425,9.693,1.349C8.881,0.771,8.226,0.465,8.226,0.465
			s-1.298-0.502-2.31-0.463c-1.182,0-2.255,0.375-3.101,1.082C0.502,3.021,0.567,6.921,2.958,9.776
			c1.333,1.589,3.169,2.578,4.986,2.719l-0.001,0.029c0.026,0.002,2.333,0.13,4.392,2.057c0.033,0.051,0.067,0.103,0.109,0.148
			l4.668,5.27c0.456,0.516,1.246,0.563,1.765,0.104C19.394,19.646,19.441,18.856,18.982,18.338z M12.551,12.966
			c-0.248,0.218-0.385,0.513-0.413,0.817c-0.912-0.728-1.825-1.152-2.566-1.396c0.716-0.166,1.367-0.482,1.919-0.945
			c0.45-0.376,0.813-0.832,1.09-1.345c0.132,1.078,0.438,1.92,0.778,2.56C13.07,12.661,12.783,12.761,12.551,12.966z"/>
		<path style="fill:#030104;" d="M8.903,3.733c0.59,0.069,1.216,0.37,1.73,0.884c0.515,0.515,0.816,1.143,0.884,1.731
			c0.538-0.049,1.062-0.282,1.473-0.693c0.412-0.411,0.643-0.935,0.692-1.472c-0.588-0.069-1.215-0.37-1.73-0.884
			c-0.514-0.515-0.815-1.142-0.884-1.731c-0.538,0.05-1.061,0.281-1.473,0.693C9.185,2.673,8.954,3.196,8.903,3.733z"/>
		<path style="fill:#030104;" d="M13.691,3.885c-0.017-0.589-0.25-1.174-0.7-1.625c-0.45-0.449-1.035-0.683-1.626-0.702
			c0.066,0.516,0.34,1.07,0.799,1.529C12.623,3.547,13.177,3.819,13.691,3.885z"/>
		<path style="fill:#030104;" d="M8.895,4.031c0.018,0.59,0.25,1.175,0.701,1.625c0.45,0.45,1.035,0.685,1.624,0.701
			c-0.065-0.514-0.339-1.068-0.798-1.527C9.964,4.371,9.409,4.098,8.895,4.031z"/>
	</g>
</g>
<g>
</g>
<g>
</g>
<g>
</g>
<g>
</g>
<g>
</g>
<g>
</g>
<g>
</g>
<g>
</g>
<g>
</g>
<g>
</g>
<g>
</g>
<g>
</g>
<g>
</g>
<g>
</g>
<g>
</g>
</svg>
