<?xml version="1.0" encoding="iso-8859-1"?>
<!-- Generator: Adobe Illustrator 16.0.0, SVG Export Plug-In . SVG Version: 6.00 Build 0)  -->
<!DOCTYPE svg PUBLIC "-//W3C//DTD SVG 1.1//EN" "http://www.w3.org/Graphics/SVG/1.1/DTD/svg11.dtd">
<svg version="1.1" id="Capa_1" xmlns="http://www.w3.org/2000/svg" xmlns:xlink="http://www.w3.org/1999/xlink" x="0px" y="0px"
	 width="478.125px" height="478.125px" viewBox="0 0 478.125 478.125" style="enable-background:new 0 0 478.125 478.125;"
	 xml:space="preserve">
<g>
	<path d="M239.062,0C107.1,0,0,107.1,0,239.062c0,131.963,107.1,239.062,239.062,239.062c131.963,0,239.062-107.1,239.062-239.062
		C478.125,107.1,371.025,0,239.062,0z M76.5,386.325c-36.337-38.25-57.375-91.8-57.375-147.263
		C19.125,183.6,40.163,130.05,76.5,91.8c3.825,3.825,9.562,9.562,13.388,15.3l-17.213,11.475l11.475,15.3l17.212-11.475
		c7.65,13.388,15.3,26.775,21.038,42.075l-19.125,5.737l5.738,19.125l19.125-5.737c3.825,15.3,5.737,30.6,7.65,45.9h-19.125v19.125
		h19.125c0,15.3-3.825,32.513-7.65,45.9l-19.125-5.738l-5.738,19.125l19.125,5.738c-5.737,15.3-11.475,28.688-21.038,42.074
		L84.15,344.25l-11.475,15.3l17.213,11.476C86.062,376.763,80.325,382.5,76.5,386.325z M239.062,459
		c-57.375,0-109.013-22.95-149.175-57.375c5.737-5.737,9.562-13.388,15.3-19.125l13.388,9.562l11.475-15.3l-15.3-9.562
		c9.562-15.3,17.212-30.601,22.95-47.812l17.212,5.737L160.65,306l-17.212-5.737c3.825-17.213,7.65-34.425,7.65-51.638h19.125V229.5
		h-19.125c0-17.212-3.825-36.337-7.65-51.638l17.212-5.737L154.913,153l-17.212,5.737c-5.738-17.212-13.388-32.512-22.95-47.812
		l15.3-9.562l-11.475-15.3l-13.388,9.562c-5.737-5.737-9.562-13.388-15.3-19.125c38.25-36.337,91.8-57.375,149.175-57.375
		S348.075,42.075,388.237,76.5c-5.737,5.737-9.562,13.388-15.3,19.125l-13.388-9.562l-11.475,15.3l15.3,9.562
		c-9.562,15.3-17.213,30.6-22.95,47.812L321.3,153l-5.737,19.125l17.213,5.737c-3.825,15.3-7.65,34.425-7.65,51.638H306v19.125
		h19.125c0,17.213,3.825,36.338,7.65,51.638L315.562,306l5.737,19.125l17.213-5.737C344.25,336.6,351.9,351.9,361.463,367.2
		l-15.301,9.562l11.476,15.3l13.388-9.562c3.824,5.737,9.562,11.475,15.3,17.213C348.075,436.05,296.438,459,239.062,459z
		 M401.625,386.325c-3.825-5.737-9.562-9.562-13.388-15.3l17.213-11.476l-11.476-15.3l-17.212,11.475
		c-7.65-13.387-15.3-26.774-21.038-42.074l19.125-5.738l-5.737-19.125l-19.125,5.738c-1.912-13.388-5.737-30.601-5.737-45.9h19.125
		V229.5H344.25c0-15.3,3.825-32.513,7.65-45.9l19.125,5.737l5.737-19.125l-19.125-5.737c5.737-15.3,11.475-28.688,21.037-42.075
		l17.213,11.475l11.475-15.3L390.15,107.1c1.912-5.738,7.649-11.475,11.475-15.3C437.963,130.05,459,183.6,459,239.062
		C459,294.525,437.963,348.075,401.625,386.325z"/>
</g>
<g>
</g>
<g>
</g>
<g>
</g>
<g>
</g>
<g>
</g>
<g>
</g>
<g>
</g>
<g>
</g>
<g>
</g>
<g>
</g>
<g>
</g>
<g>
</g>
<g>
</g>
<g>
</g>
<g>
</g>
</svg>
