<?xml version="1.0" encoding="iso-8859-1"?>
<!-- Generator: Adobe Illustrator 18.1.1, SVG Export Plug-In . SVG Version: 6.00 Build 0)  -->
<svg version="1.1" id="Capa_1" xmlns="http://www.w3.org/2000/svg" xmlns:xlink="http://www.w3.org/1999/xlink" x="0px" y="0px"
	 viewBox="0 0 31.794 31.794" style="enable-background:new 0 0 31.794 31.794;" xml:space="preserve">
<g>
	<path d="M31.5,5.36l-2.832-2.836c-0.395-0.392-1.031-0.392-1.426,0c-0.227,0.23-0.309,0.543-0.266,0.842
		c-0.213,0-0.42,0.083-0.602,0.217l-0.02-0.021l-7.34,7.337c0.07,0.645-0.086,1.303-0.459,1.863l0.773,0.782l0.018-0.019
		l0.074,0.076l-1.619,1.617l-5.318-5.313c0.598-2.139,0.057-4.531-1.623-6.214C9.187,2.026,6.824,1.48,4.697,2.058l3.603,3.6
		L7.353,9.187l-3.531,0.945l-3.6-3.601c-0.576,2.126-0.031,4.489,1.639,6.161c1.752,1.752,4.273,2.266,6.48,1.548l0.018,0.019
		l5.205,5.201l-4.951,4.951l-0.27-0.264l-1.387,1.119l-2.344,3.696l0.598,0.599l3.695-2.343l1.125-1.391l-0.268-0.265l4.951-4.951
		l8.465,8.465c0.586,0.586,1.357,0.882,2.123,0.882c0.77,0,1.535-0.296,2.125-0.882c1.17-1.168,1.17-3.068,0-4.245l-8.471-8.462
		l1.588-1.59l0.695,0.707c0.566-0.385,1.23-0.549,1.885-0.478l7.238-7.236l0.104-0.101L30.444,7.65
		c0.137-0.182,0.215-0.39,0.215-0.601c0.301,0.04,0.611-0.039,0.84-0.27C31.892,6.39,31.892,5.753,31.5,5.36z M25.56,26.281
		c0.637,0,1.148,0.511,1.148,1.146c0,0.632-0.512,1.147-1.148,1.147c-0.631,0-1.143-0.516-1.143-1.147
		C24.417,26.792,24.929,26.281,25.56,26.281z M21.449,11.299l-0.475-0.474l5.441-5.438l0.471,0.474L21.449,11.299z M23.22,13.073
		L22.747,12.6l5.439-5.439l0.473,0.473L23.22,13.073z"/>
	<g>
	</g>
	<g>
	</g>
	<g>
	</g>
	<g>
	</g>
	<g>
	</g>
	<g>
	</g>
	<g>
	</g>
	<g>
	</g>
	<g>
	</g>
	<g>
	</g>
	<g>
	</g>
	<g>
	</g>
	<g>
	</g>
	<g>
	</g>
	<g>
	</g>
</g>
<g>
</g>
<g>
</g>
<g>
</g>
<g>
</g>
<g>
</g>
<g>
</g>
<g>
</g>
<g>
</g>
<g>
</g>
<g>
</g>
<g>
</g>
<g>
</g>
<g>
</g>
<g>
</g>
<g>
</g>
</svg>
