<?xml version="1.0" encoding="iso-8859-1"?>
<!-- Generator: Adobe Illustrator 18.0.0, SVG Export Plug-In . SVG Version: 6.00 Build 0)  -->
<!DOCTYPE svg PUBLIC "-//W3C//DTD SVG 1.1//EN" "http://www.w3.org/Graphics/SVG/1.1/DTD/svg11.dtd">
<svg version="1.1" id="Capa_1" xmlns="http://www.w3.org/2000/svg" xmlns:xlink="http://www.w3.org/1999/xlink" x="0px" y="0px"
	 viewBox="0 0 372.278 372.278" style="enable-background:new 0 0 372.278 372.278;" xml:space="preserve">
<path d="M364.351,286.384c-26.964-57.117-43.331-114.729-49.119-136.855c-1.046-3.999-2.817-7.779-5.178-11.165l-0.029-13.358
	c-0.015-6.636-3.237-12.89-8.619-16.731c-2.993-2.136-5.971-4.36-8.855-6.618c-40.42-58.884-64.985-73.891-66.014-74.502
	c-0.292-0.173-0.611-0.296-0.944-0.362c-0.84-0.172-5.309-0.647-11.44,6.216c-12.433,12.53-37.359,65.71-39.445,78.924
	c-1.499,9.495-16.136,31.186-22.026,39.443c-0.165,0.046-0.324,0.09-0.49,0.137c-14.455,4.065-32.752,13.563-36.746,26.949
	c-2.035,6.82-0.273,13.671,5.236,20.376c0.12,9.498,1.761,29.709,7.261,51.402c-0.824,1.222-1.604,2.384-2.329,3.467
	c-2.729,4.077-6.545,7.406-11.039,9.626c-4.797,2.371-8.923,5.127-12.265,8.19c-2.56,2.347-6.521,6.618-11.109,11.564
	c-1.802,1.943-3.726,4.017-5.721,6.144c-3.486-0.021-13.142,0.087-23.377,1.627c-17.747,2.67-28.053,8.275-30.633,16.661
	c-2.429,7.892-2.336,13.986,0.277,18.112c0.122,0.193,0.252,0.367,0.38,0.544c-9.484,3.203-19.662,6.03-28.317,8.015
	c-2.39,0.548-3.985,2.721-3.795,5.165c0.191,2.447,2.107,4.348,4.555,4.518c11.17,0.784,28.66,1.348,29.079,1.348
	c7.899,0,15.696-1.994,22.627-5.798c0.214-0.117,0.44-0.242,0.657-0.362c6.726,2.397,13.746,3.627,20.899,3.627
	c0.085,0,144.282-0.578,144.282-0.578c2.932-0.012,5.515-1.674,6.741-4.337c0.02-0.043,0.031-0.088,0.049-0.131
	c55.942,6.912,89.703,7.926,108.713,7.926c4.748,0,8.579-0.064,11.604-0.113c0.344-0.006,0.677-0.011,0.997-0.016
	c3.172-0.051,6.3-0.921,8.961-2.649c5.461-3.546,9.257-8.438,11.312-14.595C376.573,309.978,365.253,288.08,364.351,286.384z
	 M342.409,250.935c-8.874-0.911-18.889,3.111-24.518,5.861c-1.112-16.023-8.279-49.442-8.621-51.029
	c-0.189-0.879-0.764-1.627-1.564-2.038l-14.374-7.371c-2.342-1.2-3.887-3.512-4.075-6.201c-0.138-1.98,0.593-3.925,1.855-5.457
	l4.099-4.975c4.485-5.448,5.831-12.697,3.6-19.393l-1.342-4.023c-0.909-2.725-1.137-5.63-0.665-8.464l2.171-13.026l3.377,3.545
	c3.39,3.559,5.836,7.944,7.075,12.682C313.963,168.387,324.955,207.37,342.409,250.935z M123.016,311.045
	c-3.247-1.623-7.852-3.163-13.731-4.599c5.817-4.22,11.366-8.556,16.332-12.896l17.977-3.655c2.038,3.341,4.187,6.384,6.435,9.096
	c5.16,6.189,14.36,16.425,18.258,20.74C157.945,318.908,133.861,316.476,123.016,311.045z M139.533,282.526
	c0.316,0.631,0.631,1.264,0.953,1.878l-4.509,0.917C137.354,284.405,138.532,283.465,139.533,282.526z M153.349,293.526
	c-3.504-4.526-6.75-9.972-9.681-16.224c0.733-1.334,1.149-2.485,1.378-3.298c4.491-4.009,27.122-24.368,43.708-42.159
	c-0.787,1.627-1.424,3.006-1.865,4.111c-1.303,3.256-1.066,6.769,0.684,10.157c1.727,3.344,4.956,6.577,9.295,9.496
	C191.787,263.087,175.172,285.452,153.349,293.526z M192.904,243.36c-0.953-1.847-1.099-3.54-0.443-5.177
	c0.756-1.893,2.27-4.923,4.188-8.761c2.715-5.431,6.093-12.188,9.266-19.601c0.07-0.153,0.362-0.855,0.435-1.05
	c1.087-2.571,2.213-5.049,3.302-7.446c2.911-6.407,5.549-12.228,6.742-18.109c2.651,3.41,6.207,6.86,10.892,9.45
	c6.527,3.608,13.931,4.789,22.089,3.56c-2.347,5.561-4.851,14.195-4.851,25.763c0,21.232,11.906,41.173,12.413,42.012
	c0.549,0.908,1.528,1.448,2.566,1.448c0.16,0,0.321-0.013,0.482-0.039c1.209-0.196,2.177-1.107,2.445-2.302
	c0.273-1.215,6.685-29.892,5.847-42.963c-0.61-9.465-5.196-20.855-7.911-26.872c11.303-4.301,19.089-11.254,23.143-20.702
	c5.782-13.48,2.238-28.19-0.443-34.085c-3.539-7.787-23.871-30.374-48.694-35.099c-3.482-0.664-7.079,0.419-9.616,2.894
	c-1.997,1.947-4.037,4.004-6.198,6.18c-3.494,3.521-7.196,7.249-11.075,10.871l-0.058-3.165c-0.053-2.664,0.373-5.29,1.269-7.811
	c8.57-24.262,16.798-42.554,21.737-48.557c21.618,19.105,38.122,38.932,41.086,42.557l1.083,6.101
	c0.626,3.56,2.342,6.754,4.959,9.235l15.127,14.375l-1.798,10.79c-0.633,3.799-0.327,7.695,0.891,11.348l1.342,4.024
	c1.565,4.693,0.605,9.861-2.54,13.68l-4.253,5.162c-2.81,3.413-3.78,7.93-2.584,12.236c1.038,3.736,3.737,6.792,7.188,8.561
	l12.768,6.547c1.573,7.469,8.881,42.862,8.311,53.15c-0.522,9.389,0.989,23.564,6.399,36.381l-69.883-16.122
	c-2.08-4.677-9.454-18.147-26.816-22.343C207.714,256.102,196.137,249.622,192.904,243.36z M180.352,163.049
	c-17.599,1.93-23.4-1.324-25.292-3.47c-0.722-0.819-1.017-1.646-1.129-2.324c2.377-0.668,4.574-1.273,6.623-1.837
	c14.743-4.059,22.143-6.097,34.784-14.522c10.198-6.797,19.378-16.046,27.478-24.205c2.144-2.16,4.169-4.2,6.132-6.115
	c1.133-1.105,2.732-1.59,4.287-1.294c22.933,4.356,41.581,25.554,44.37,31.69c1.852,4.069,5.531,17.255,0.391,29.236
	c-3.561,8.302-10.729,14.367-21.301,18.027c-10.174,3.518-19.061,3.259-26.418-0.771c-7.635-4.183-11.772-11.27-13.62-15.323
	c-0.245-0.537-1.362-3.197-1.753-4.124c-0.055-0.131-0.112-0.257-0.176-0.384c-1.829-3.668-4.506-6.807-7.855-9.082
	c-4.607-3.131-9.353-4.205-14.12-3.184C188.491,156.278,184.343,158.853,180.352,163.049z M255.515,197.148
	c2.491,5.724,6.269,15.534,6.774,23.384c0.52,8.089-2.128,23.44-3.992,32.966c-3.369-7.398-7.773-19.388-7.773-31.508
	C250.524,210.273,253.27,201.974,255.515,197.148z M180.635,112.867c1.913-12.113,26.144-64,37.824-75.68
	c0.042-0.041,0.082-0.084,0.121-0.128c2.819-3.172,4.781-4.03,5.63-4.263c4.387,2.987,27.843,20.384,63.653,72.633
	c0.172,0.251,0.382,0.475,0.621,0.663c3.069,2.41,6.244,4.788,9.436,7.066c3.812,2.72,6.094,7.154,6.105,11.86l0.014,6.417
	l-1.234-1.295c-1.655-1.738-4.204-2.253-6.446-1.224c-0.543,0.249-1.021,0.594-1.442,0.996l-13.229-12.571
	c-1.679-1.592-2.778-3.64-3.18-5.928l-1.22-6.869c-0.088-0.493-0.298-0.957-0.611-1.349c-0.188-0.235-19.122-23.808-44.376-45.733
	c-1.047-0.91-2.582-0.982-3.71-0.176c-3.4,2.429-11.242,12.553-25.555,53.066c-1.138,3.201-1.68,6.544-1.611,9.931l0.153,8.319
	c-3.097,2.631-6.289,5.113-9.569,7.299c-10.937,7.29-17.458,9.41-29.875,12.853C168.24,139.698,179.112,122.508,180.635,112.867z
	 M126.675,197.729c0-0.725-0.262-1.425-0.738-1.971c-4.642-5.327-6.237-10.57-4.741-15.582c2.677-8.972,14.715-16.636,27.008-21.083
	c0.352,1.393,1.022,2.875,2.196,4.266c3.521,4.172,10.342,6.269,20.341,6.269c1.422,0,2.924-0.053,4.474-0.138
	c-0.639,0.931-1.274,1.896-1.902,2.916c-4.193,6.804-7.424,14.551-9.602,23.026c-1.148,4.47-3.918,12.87-9.565,18.92
	c-5.039,5.4-14.128,18.204-21.64,29.173C128.512,225.9,126.675,207.94,126.675,197.729z M36.738,322.291
	c-1.501-2.534-1.335-7.154,0.467-13.011c3.202-10.405,27.837-13.439,42.488-13.969c-1.782,1.843-3.585,3.678-5.388,5.46
	c-4.244-0.461-6.933-0.682-7.057-0.692c-1.647-0.133-3.099,1.094-3.234,2.747c-0.134,1.651,1.095,3.099,2.747,3.233
	c0.015,0.001,0.673,0.055,1.83,0.164c-3.998,3.668-7.837,6.84-11.197,8.978c-4.59,2.921-11.337,5.924-18.931,8.735
	C37.982,323.701,37.292,323.228,36.738,322.291z M32.553,339.204c-5.042-0.135-12.251-0.389-20.426-0.861
	c17.659-4.514,37.941-11.368,48.487-18.079c10.465-6.66,24.637-21.94,34.986-33.099c4.498-4.851,8.384-9.039,10.764-11.221
	c2.923-2.681,6.581-5.114,10.869-7.234c5.433-2.685,10.055-6.72,13.366-11.668c7.657-11.442,21.467-31.671,27.93-38.597
	c6.227-6.671,9.414-15.385,10.99-21.52c2.028-7.893,5.021-15.083,8.898-21.372c5.103-8.277,10.493-13.229,15.589-14.32
	c3.14-0.668,6.245,0.073,9.492,2.279c3.605,2.449,6.206,6.251,7.323,10.707c0.086,0.342,0.151,0.614,0.171,0.748
	c0.627,7.518-2.817,15.098-6.806,23.876c-1.115,2.456-3.844,8.742-3.879,8.825c-6.101,12.998-45.058,49.258-59.963,62.485
	c-0.556,0.493-0.902,1.121-0.984,1.859c-0.036,0.241-0.987,5.942-10.305,10.339c-0.312,0.147-0.597,0.348-0.841,0.592
	c-7.481,7.48-17.316,15.154-27.703,22.38c-0.13,0.076-0.251,0.161-0.369,0.255c-16.7,11.588-34.769,22.003-46.756,28.581
	C47.023,337.655,39.822,339.396,32.553,339.204z M78.061,336.685c-0.076,0-0.152,0-0.229,0c-4.622,0-9.182-0.574-13.63-1.686
	c11.166-6.331,25.18-14.715,38.483-23.89c7.869,1.634,13.741,3.389,17.469,5.217c-3.339,4.169-8.463,11.869-8.885,20.225
	L78.061,336.685z M223.405,335.261c-0.117,0.253-0.479,0.843-1.315,0.847l-104.812,0.42c0.514-7.54,6.162-14.872,8.717-17.828
	c16.886,5.666,45.491,7.291,46.846,7.365c0.669,0.04,1.313-0.145,1.858-0.52c4.453-3.047,12.18-6.492,14.505-4.747
	c0.429,0.321,0.936,0.523,1.468,0.582c3.933,0.441,11.528-0.151,17.205-0.725c2.453-0.244,4.853,0.726,6.443,2.601l8.873,10.455
	C223.734,334.349,223.521,335.007,223.405,335.261z M364.801,326.292c-1.405,4.211-3.87,7.681-7.354,10.367
	c-2.362,1.821-5.295,2.746-8.277,2.794c-0.015,0-0.03,0-0.045,0.001c-15.071,0.248-50.24,0.822-120.239-7.862
	c-0.284-0.624-0.655-1.218-1.118-1.763l-8.873-10.455c-2.868-3.38-7.204-5.142-11.62-4.687c-7.024,0.708-12.386,0.982-15.263,0.79
	c-3.116-1.788-7.551-1.451-13.203,1.006c-1.37,0.596-2.651,1.248-3.758,1.854c-0.156-0.199-10.742-11.903-17.664-19.95
	c23.001-9.404,39.646-32.184,44.67-39.715c5.189,2.696,11.39,4.987,18.243,6.642c17.423,4.21,22.976,19.428,23.2,20.065
	c0.338,0.977,1.154,1.71,2.16,1.941l76.183,17.576c0.199,0.347,0.383,0.702,0.589,1.044l8,13.334
	c0.953,1.59,3.147,1.977,4.598,0.672c1.079-0.971,1.232-2.616,0.485-3.861l-7.938-13.232c-7.615-12.691-9.932-28.728-9.637-39.347
	c5.945-3.27,18.923-8.827,27.186-5.888c4.255,10.334,8.863,20.871,13.832,31.394c0.022,0.048,0.047,0.095,0.071,0.142
	C362.909,296.359,369.108,313.391,364.801,326.292z"/>
<g>
</g>
<g>
</g>
<g>
</g>
<g>
</g>
<g>
</g>
<g>
</g>
<g>
</g>
<g>
</g>
<g>
</g>
<g>
</g>
<g>
</g>
<g>
</g>
<g>
</g>
<g>
</g>
<g>
</g>
</svg>
